<svg xmlns="http://www.w3.org/2000/svg" width="270" height="158" viewBox="0 0 270 158" fill="none"><g clip-path="url(#clip0_602_134)"><path d="M160.898 71.032H109.102L108.754 74.2848H161.246L160.898 71.032Z" fill="#E9EFF4"></path><path d="M175.481 58.007C175.511 55.0532 173.142 52.6339 170.188 52.6035C167.234 52.5731 164.815 54.943 164.784 57.8969C164.754 60.8507 167.124 63.2699 170.078 63.3004C173.031 63.3308 175.451 60.9609 175.481 58.007Z" fill="#E9EFF4"></path><path d="M207.114 104.057L168.933 0.665482H101.061L62.8796 104.057H207.114ZM99.8665 47.6159C100.75 47.6159 101.596 47.7589 102.41 47.9704V30.3072C102.41 26.6067 105.414 23.6027 109.115 23.6027H160.891C164.592 23.6027 167.596 26.6067 167.596 30.3072V47.9704C168.411 47.7589 169.25 47.6159 170.14 47.6159C175.849 47.6159 180.445 52.2431 180.476 57.9526C180.545 69.0729 173.225 92.8684 173.225 92.8684H167.596H106.639H96.7817C96.7817 92.8684 89.4614 69.0729 89.5299 57.9526C89.5672 52.2431 94.1571 47.6159 99.8665 47.6159Z" fill="#E9EFF4"></path><path d="M104.096 104.716C104.046 104.716 103.996 104.716 103.946 104.698C103.586 104.617 103.362 104.262 103.443 103.902L105.98 92.7191C106.061 92.3584 106.416 92.1345 106.776 92.2154C107.137 92.2962 107.361 92.6507 107.28 93.0114L104.743 104.194C104.674 104.505 104.4 104.71 104.096 104.71V104.716Z" fill="#4D535F"></path><path d="M165.948 104.716C165.643 104.716 165.37 104.505 165.301 104.2L162.764 93.0177C162.683 92.6569 162.907 92.3024 163.267 92.2216C163.628 92.1407 163.983 92.3646 164.063 92.7253L166.601 103.908C166.682 104.269 166.458 104.623 166.097 104.704C166.047 104.716 165.998 104.723 165.948 104.723V104.716Z" fill="#4D535F"></path><path d="M99.8665 63.3075C102.821 63.3075 105.215 60.9128 105.215 57.9588C105.215 55.0048 102.821 52.6101 99.8665 52.6101C96.9125 52.6101 94.5178 55.0048 94.5178 57.9588C94.5178 60.9128 96.9125 63.3075 99.8665 63.3075Z" fill="#E9EFF4"></path><path d="M209.334 110.718H60.6654C60.4478 110.718 60.2425 110.612 60.1181 110.432C59.9937 110.252 59.9626 110.028 60.0373 109.823L100.439 0.43536C100.532 0.174144 100.781 0 101.061 0H168.933C169.213 0 169.462 0.174144 169.555 0.43536L209.95 109.829C210.025 110.034 209.994 110.258 209.869 110.438C209.745 110.619 209.54 110.724 209.322 110.724L209.334 110.718ZM61.617 109.393H208.377L168.473 1.33096H101.527L61.617 109.393Z" fill="#4D535F"></path><path d="M167.59 48.611C167.223 48.611 166.924 48.3125 166.924 47.9455V30.3072C166.924 26.9798 164.212 24.2682 160.885 24.2682H109.108C105.781 24.2682 103.069 26.9798 103.069 30.3072V47.9393C103.069 48.3062 102.771 48.6048 102.404 48.6048C102.037 48.6048 101.738 48.3062 101.738 47.9393V30.3072C101.738 26.246 105.041 22.9372 109.108 22.9372H160.885C164.946 22.9372 168.255 26.2397 168.255 30.3072V47.9455C168.255 48.3125 167.957 48.611 167.59 48.611Z" fill="#4D535F"></path><path d="M106.633 93.5339H96.7753C96.483 93.5339 96.228 93.3411 96.141 93.0674C95.8424 92.091 88.7896 69.048 88.8642 57.9526C88.9016 51.8886 93.8398 46.9566 99.8664 46.9566C105.893 46.9566 110.744 51.7829 110.869 57.9464C110.918 60.4652 109.749 71.486 108.76 80.2927C108.717 80.6597 108.393 80.9209 108.026 80.8774C107.659 80.8338 107.398 80.5104 107.442 80.1435C108.853 67.574 109.581 59.9055 109.544 57.9712C109.432 52.5417 105.184 48.2814 99.8664 48.2814C94.5488 48.2814 90.2263 52.6225 90.1952 57.9588C90.133 67.9969 96.2529 88.8133 97.2729 92.2029H106.633C107 92.2029 107.299 92.5015 107.299 92.8684C107.299 93.2354 107 93.5339 106.633 93.5339Z" fill="#4D535F"></path><path d="M173.218 93.5339H163.36C162.994 93.5339 162.695 93.2354 162.695 92.8684C162.695 92.5015 162.994 92.2029 163.36 92.2029H172.721C173.741 88.8133 179.861 67.9969 179.798 57.9588C179.767 52.6225 175.426 48.2814 170.127 48.2814C164.828 48.2814 160.562 52.5355 160.45 57.9712C160.412 59.9055 161.14 67.574 162.552 80.1435C162.596 80.5104 162.328 80.84 161.967 80.8774C161.6 80.9209 161.271 80.6535 161.233 80.2927C160.245 71.486 159.075 60.4652 159.125 57.9464C159.249 51.7829 164.082 46.9566 170.127 46.9566C176.173 46.9566 181.092 51.8886 181.129 57.9526C181.198 69.048 174.151 92.091 173.853 93.0674C173.766 93.3473 173.511 93.5339 173.218 93.5339Z" fill="#4D535F"></path><path d="M99.8664 63.973C96.5514 63.973 93.8522 61.2737 93.8522 57.9588C93.8522 54.6438 96.5514 51.9446 99.8664 51.9446C103.181 51.9446 105.881 54.6438 105.881 57.9588C105.881 61.2737 103.181 63.973 99.8664 63.973ZM99.8664 53.2756C97.2853 53.2756 95.1831 55.3777 95.1831 57.9588C95.1831 60.5399 97.2853 62.642 99.8664 62.642C102.447 62.642 104.55 60.5399 104.55 57.9588C104.55 55.3777 102.447 53.2756 99.8664 53.2756Z" fill="#4D535F"></path><path d="M163.367 93.5339H106.633C106.266 93.5339 105.968 93.2353 105.968 92.8684C105.968 92.5015 106.266 92.2029 106.633 92.2029H163.367C163.734 92.2029 164.032 92.5015 164.032 92.8684C164.032 93.2353 163.734 93.5339 163.367 93.5339Z" fill="#4D535F"></path><path d="M161.246 74.9502H108.754C108.387 74.9502 108.089 74.6517 108.089 74.2848C108.089 73.9178 108.387 73.6193 108.754 73.6193H161.246C161.613 73.6193 161.911 73.9178 161.911 74.2848C161.911 74.6517 161.613 74.9502 161.246 74.9502Z" fill="#4D535F"></path><path d="M145.281 38.0069C145.113 38.0069 144.938 37.9447 144.808 37.8141C144.547 37.5529 144.547 37.1362 144.808 36.875L146.985 34.6982C147.246 34.4369 147.663 34.4369 147.924 34.6982C148.185 34.9594 148.185 35.3761 147.924 35.6373L145.747 37.8141C145.616 37.9447 145.448 38.0069 145.274 38.0069H145.281Z" fill="#4D535F"></path><path d="M140.33 42.9575C140.162 42.9575 139.988 42.8953 139.857 42.7647C139.596 42.5035 139.596 42.0868 139.857 41.8256L142.034 39.6488C142.295 39.3876 142.712 39.3876 142.973 39.6488C143.234 39.91 143.234 40.3267 142.973 40.5879L140.796 42.7647C140.666 42.8953 140.498 42.9575 140.324 42.9575H140.33Z" fill="#4D535F"></path><path d="M147.457 42.9575C147.289 42.9575 147.115 42.8953 146.985 42.7647L144.808 40.5879C144.547 40.3267 144.547 39.91 144.808 39.6488C145.069 39.3876 145.486 39.3876 145.747 39.6488L147.924 41.8256C148.185 42.0868 148.185 42.5035 147.924 42.7647C147.793 42.8953 147.625 42.9575 147.451 42.9575H147.457Z" fill="#4D535F"></path><path d="M142.507 38.0069C142.339 38.0069 142.165 37.9447 142.034 37.8141L139.857 35.6373C139.596 35.3761 139.596 34.9594 139.857 34.6982C140.118 34.4369 140.535 34.4369 140.796 34.6982L142.973 36.875C143.234 37.1362 143.234 37.5529 142.973 37.8141C142.842 37.9447 142.675 38.0069 142.5 38.0069H142.507Z" fill="#4D535F"></path><path d="M145.281 54.2645C145.113 54.2645 144.938 54.2023 144.808 54.0717C144.547 53.8104 144.547 53.3937 144.808 53.1325L146.985 50.9557C147.246 50.6945 147.663 50.6945 147.924 50.9557C148.185 51.2169 148.185 51.6336 147.924 51.8949L145.747 54.0717C145.616 54.2023 145.448 54.2645 145.274 54.2645H145.281Z" fill="#4D535F"></path><path d="M140.33 59.2151C140.162 59.2151 139.988 59.1529 139.857 59.0223C139.596 58.7611 139.596 58.3444 139.857 58.0832L142.034 55.9064C142.295 55.6452 142.712 55.6452 142.973 55.9064C143.234 56.1676 143.234 56.5843 142.973 56.8455L140.796 59.0223C140.666 59.1529 140.498 59.2151 140.324 59.2151H140.33Z" fill="#4D535F"></path><path d="M147.457 59.2151C147.289 59.2151 147.115 59.1529 146.985 59.0223L144.808 56.8455C144.547 56.5843 144.547 56.1676 144.808 55.9064C145.069 55.6452 145.486 55.6452 145.747 55.9064L147.924 58.0832C148.185 58.3444 148.185 58.7611 147.924 59.0223C147.793 59.1529 147.625 59.2151 147.451 59.2151H147.457Z" fill="#4D535F"></path><path d="M142.507 54.2645C142.339 54.2645 142.165 54.2023 142.034 54.0717L139.857 51.8949C139.596 51.6336 139.596 51.2169 139.857 50.9557C140.118 50.6945 140.535 50.6945 140.796 50.9557L142.973 53.1325C143.234 53.3937 143.234 53.8104 142.973 54.0717C142.842 54.2023 142.675 54.2645 142.5 54.2645H142.507Z" fill="#4D535F"></path><path d="M127.487 38.0069C127.319 38.0069 127.145 37.9447 127.014 37.8141C126.753 37.5529 126.753 37.1362 127.014 36.875L129.191 34.6982C129.452 34.4369 129.869 34.4369 130.13 34.6982C130.391 34.9594 130.391 35.3761 130.13 35.6373L127.953 37.8141C127.823 37.9447 127.655 38.0069 127.481 38.0069H127.487Z" fill="#4D535F"></path><path d="M122.536 42.9575C122.368 42.9575 122.194 42.8953 122.063 42.7647C121.802 42.5035 121.802 42.0868 122.063 41.8256L124.24 39.6488C124.501 39.3876 124.918 39.3876 125.179 39.6488C125.441 39.91 125.441 40.3267 125.179 40.5879L123.003 42.7647C122.872 42.8953 122.704 42.9575 122.53 42.9575H122.536Z" fill="#4D535F"></path><path d="M129.67 42.9575C129.502 42.9575 129.328 42.8953 129.197 42.7647L127.02 40.5879C126.759 40.3267 126.759 39.91 127.02 39.6488C127.282 39.3876 127.698 39.3876 127.96 39.6488L130.136 41.8256C130.398 42.0868 130.398 42.5035 130.136 42.7647C130.006 42.8953 129.838 42.9575 129.664 42.9575H129.67Z" fill="#4D535F"></path><path d="M124.719 38.0069C124.551 38.0069 124.377 37.9447 124.246 37.8141L122.07 35.6373C121.808 35.3761 121.808 34.9594 122.07 34.6982C122.331 34.4369 122.748 34.4369 123.009 34.6982L125.186 36.875C125.447 37.1362 125.447 37.5529 125.186 37.8141C125.055 37.9447 124.887 38.0069 124.713 38.0069H124.719Z" fill="#4D535F"></path><path d="M127.487 54.2645C127.319 54.2645 127.145 54.2023 127.014 54.0717C126.753 53.8104 126.753 53.3937 127.014 53.1325L129.191 50.9557C129.452 50.6945 129.869 50.6945 130.13 50.9557C130.391 51.2169 130.391 51.6336 130.13 51.8949L127.953 54.0717C127.823 54.2023 127.655 54.2645 127.481 54.2645H127.487Z" fill="#4D535F"></path><path d="M122.536 59.2151C122.368 59.2151 122.194 59.1529 122.063 59.0223C121.802 58.7611 121.802 58.3444 122.063 58.0832L124.24 55.9064C124.501 55.6452 124.918 55.6452 125.179 55.9064C125.441 56.1676 125.441 56.5843 125.179 56.8455L123.003 59.0223C122.872 59.1529 122.704 59.2151 122.53 59.2151H122.536Z" fill="#4D535F"></path><path d="M129.67 59.2151C129.502 59.2151 129.328 59.1529 129.197 59.0223L127.02 56.8455C126.759 56.5843 126.759 56.1676 127.02 55.9064C127.282 55.6452 127.698 55.6452 127.96 55.9064L130.136 58.0832C130.398 58.3444 130.398 58.7611 130.136 59.0223C130.006 59.1529 129.838 59.2151 129.664 59.2151H129.67Z" fill="#4D535F"></path><path d="M124.719 54.2645C124.551 54.2645 124.377 54.2023 124.246 54.0717L122.07 51.8949C121.808 51.6336 121.808 51.2169 122.07 50.9557C122.331 50.6945 122.748 50.6945 123.009 50.9557L125.186 53.1325C125.447 53.3937 125.447 53.8104 125.186 54.0717C125.055 54.2023 124.887 54.2645 124.713 54.2645H124.719Z" fill="#4D535F"></path><path d="M160.898 71.6975H109.102C108.735 71.6975 108.437 71.399 108.437 71.032C108.437 70.6651 108.735 70.3665 109.102 70.3665H160.898C161.265 70.3665 161.563 70.6651 161.563 71.032C161.563 71.399 161.265 71.6975 160.898 71.6975Z" fill="#4D535F"></path><path d="M170.133 63.973C166.818 63.973 164.119 61.2737 164.119 57.9588C164.119 54.6438 166.818 51.9446 170.133 51.9446C173.448 51.9446 176.148 54.6438 176.148 57.9588C176.148 61.2737 173.448 63.973 170.133 63.973ZM170.133 53.2756C167.552 53.2756 165.45 55.3777 165.45 57.9588C165.45 60.5399 167.552 62.642 170.133 62.642C172.715 62.642 174.817 60.5399 174.817 57.9588C174.817 55.3777 172.715 53.2756 170.133 53.2756Z" fill="#4D535F"></path><path d="M207.114 104.716H62.8796C62.5126 104.716 62.2141 104.418 62.2141 104.051C62.2141 103.684 62.5126 103.385 62.8796 103.385H207.114C207.481 103.385 207.78 103.684 207.78 104.051C207.78 104.418 207.481 104.716 207.114 104.716Z" fill="#4D535F"></path></g><path d="M1.776 131.918V148.718H5.904V131.918H1.776ZM16.2795 141.998V148.718H20.0475V141.614C20.0475 140.286 19.7355 139.254 19.1115 138.518C18.4875 137.782 17.4875 137.414 16.1115 137.414C15.2955 137.414 14.6075 137.582 14.0475 137.918C13.5035 138.254 13.0715 138.726 12.7515 139.334V137.678H9.1035V148.718H12.7515V141.998C12.7515 141.566 12.8315 141.198 12.9915 140.894C13.1515 140.59 13.3755 140.358 13.6635 140.198C13.9515 140.038 14.2875 139.958 14.6715 139.958C15.2475 139.958 15.6555 140.134 15.8955 140.486C16.1515 140.838 16.2795 141.342 16.2795 141.998ZM21.6122 137.678V140.678H29.0042V137.678H21.6122ZM23.5562 133.838V148.718H27.0362V133.838H23.5562ZM36.1648 148.958C37.5728 148.958 38.7648 148.686 39.7408 148.142C40.7328 147.598 41.5168 146.782 42.0928 145.694L38.8528 144.902C38.5808 145.382 38.2128 145.742 37.7488 145.982C37.3008 146.222 36.7568 146.342 36.1168 146.342C35.5568 146.342 35.0848 146.222 34.7008 145.982C34.3168 145.726 34.0288 145.358 33.8368 144.878C33.6448 144.398 33.5488 143.822 33.5488 143.15C33.5648 142.414 33.6608 141.806 33.8368 141.326C34.0288 140.83 34.3088 140.462 34.6768 140.222C35.0448 139.982 35.5008 139.862 36.0448 139.862C36.4768 139.862 36.8528 139.958 37.1728 140.15C37.4928 140.342 37.7408 140.614 37.9168 140.966C38.0928 141.318 38.1808 141.734 38.1808 142.214C38.1808 142.326 38.1488 142.47 38.0848 142.646C38.0368 142.806 37.9728 142.942 37.8928 143.054L38.7568 141.95H31.9408V143.966H42.0208C42.0528 143.854 42.0688 143.718 42.0688 143.558C42.0688 143.382 42.0688 143.206 42.0688 143.03C42.0688 141.846 41.8368 140.838 41.3728 140.006C40.9088 139.174 40.2368 138.542 39.3568 138.11C38.4768 137.662 37.3968 137.438 36.1168 137.438C34.8368 137.438 33.7248 137.67 32.7808 138.134C31.8528 138.598 31.1408 139.262 30.6448 140.126C30.1488 140.99 29.9008 142.014 29.9008 143.198C29.9008 144.366 30.1568 145.382 30.6688 146.246C31.1808 147.11 31.9008 147.782 32.8288 148.262C33.7728 148.726 34.8848 148.958 36.1648 148.958ZM47.8826 137.678H44.3066V148.718H47.8826V137.678ZM51.0746 141.422L52.6346 138.326C52.4426 138.038 52.1626 137.814 51.7946 137.654C51.4266 137.494 51.0426 137.414 50.6426 137.414C50.0346 137.414 49.4506 137.614 48.8906 138.014C48.3306 138.414 47.8746 138.958 47.5226 139.646C47.1866 140.334 47.0186 141.118 47.0186 141.998L47.8826 143.27C47.8826 142.742 47.9546 142.294 48.0986 141.926C48.2426 141.558 48.4506 141.278 48.7226 141.086C48.9946 140.894 49.3066 140.798 49.6586 140.798C49.9786 140.798 50.2426 140.854 50.4506 140.966C50.6746 141.078 50.8826 141.23 51.0746 141.422ZM53.9578 133.526C53.9578 134.102 54.1658 134.574 54.5818 134.942C54.9978 135.31 55.4938 135.494 56.0698 135.494C56.6618 135.494 57.1578 135.31 57.5578 134.942C57.9738 134.574 58.1818 134.102 58.1818 133.526C58.1818 132.95 57.9738 132.486 57.5578 132.134C57.1578 131.766 56.6618 131.582 56.0698 131.582C55.4938 131.582 54.9978 131.766 54.5818 132.134C54.1658 132.486 53.9578 132.95 53.9578 133.526ZM54.3178 137.678V148.718H57.8218V137.678H54.3178ZM66.4226 148.958C67.8306 148.958 69.0226 148.686 69.9986 148.142C70.9906 147.598 71.7746 146.782 72.3506 145.694L69.1106 144.902C68.8386 145.382 68.4706 145.742 68.0066 145.982C67.5586 146.222 67.0146 146.342 66.3746 146.342C65.8146 146.342 65.3426 146.222 64.9586 145.982C64.5746 145.726 64.2866 145.358 64.0946 144.878C63.9026 144.398 63.8066 143.822 63.8066 143.15C63.8226 142.414 63.9186 141.806 64.0946 141.326C64.2866 140.83 64.5666 140.462 64.9346 140.222C65.3026 139.982 65.7586 139.862 66.3026 139.862C66.7346 139.862 67.1106 139.958 67.4306 140.15C67.7506 140.342 67.9986 140.614 68.1746 140.966C68.3506 141.318 68.4386 141.734 68.4386 142.214C68.4386 142.326 68.4066 142.47 68.3426 142.646C68.2946 142.806 68.2306 142.942 68.1506 143.054L69.0146 141.95H62.1986V143.966H72.2786C72.3106 143.854 72.3266 143.718 72.3266 143.558C72.3266 143.382 72.3266 143.206 72.3266 143.03C72.3266 141.846 72.0946 140.838 71.6306 140.006C71.1666 139.174 70.4946 138.542 69.6146 138.11C68.7346 137.662 67.6546 137.438 66.3746 137.438C65.0946 137.438 63.9826 137.67 63.0386 138.134C62.1106 138.598 61.3986 139.262 60.9026 140.126C60.4066 140.99 60.1586 142.014 60.1586 143.198C60.1586 144.366 60.4146 145.382 60.9266 146.246C61.4386 147.11 62.1586 147.782 63.0866 148.262C64.0306 148.726 65.1426 148.958 66.4226 148.958ZM78.3564 144.398V137.678H74.5644V144.782C74.5644 146.094 74.8764 147.126 75.5004 147.878C76.1404 148.614 77.1484 148.982 78.5244 148.982C79.3404 148.982 80.0204 148.814 80.5644 148.478C81.1084 148.126 81.5484 147.654 81.8844 147.062V148.718H85.5084V137.678H81.8844V144.398C81.8844 144.83 81.8044 145.198 81.6444 145.502C81.4844 145.806 81.2604 146.038 80.9724 146.198C80.7004 146.358 80.3644 146.438 79.9644 146.438C79.3724 146.438 78.9564 146.262 78.7164 145.91C78.4764 145.542 78.3564 145.038 78.3564 144.398ZM91.9451 137.678H88.3691V148.718H91.9451V137.678ZM95.1371 141.422L96.6971 138.326C96.5051 138.038 96.2251 137.814 95.8571 137.654C95.4891 137.494 95.1051 137.414 94.7051 137.414C94.0971 137.414 93.5131 137.614 92.9531 138.014C92.3931 138.414 91.9371 138.958 91.5851 139.646C91.2491 140.334 91.0811 141.118 91.0811 141.998L91.9451 143.27C91.9451 142.742 92.0171 142.294 92.1611 141.926C92.3051 141.558 92.5131 141.278 92.7851 141.086C93.0571 140.894 93.3691 140.798 93.7211 140.798C94.0411 140.798 94.3051 140.854 94.5131 140.966C94.7371 141.078 94.9451 141.23 95.1371 141.422ZM106.612 129.998V148.718H110.236V129.998H106.612ZM97.5883 143.198C97.5883 144.43 97.8363 145.478 98.3323 146.342C98.8443 147.19 99.5003 147.838 100.3 148.286C101.1 148.734 101.948 148.958 102.844 148.958C103.772 148.958 104.588 148.726 105.292 148.262C106.012 147.798 106.58 147.134 106.996 146.27C107.412 145.406 107.62 144.382 107.62 143.198C107.62 141.998 107.412 140.974 106.996 140.126C106.58 139.262 106.012 138.598 105.292 138.134C104.588 137.67 103.772 137.438 102.844 137.438C101.948 137.438 101.1 137.662 100.3 138.11C99.5003 138.558 98.8443 139.206 98.3323 140.054C97.8363 140.902 97.5883 141.95 97.5883 143.198ZM101.404 143.198C101.404 142.622 101.524 142.126 101.764 141.71C102.004 141.278 102.324 140.95 102.724 140.726C103.124 140.486 103.564 140.366 104.044 140.366C104.46 140.366 104.86 140.478 105.244 140.702C105.644 140.926 105.972 141.254 106.228 141.686C106.484 142.102 106.612 142.606 106.612 143.198C106.612 143.79 106.484 144.302 106.228 144.734C105.972 145.15 105.644 145.47 105.244 145.694C104.86 145.918 104.46 146.03 104.044 146.03C103.564 146.03 103.124 145.918 102.724 145.694C102.324 145.454 102.004 145.126 101.764 144.71C101.524 144.278 101.404 143.774 101.404 143.198ZM118.665 148.958C120.073 148.958 121.265 148.686 122.241 148.142C123.233 147.598 124.017 146.782 124.593 145.694L121.353 144.902C121.081 145.382 120.713 145.742 120.249 145.982C119.801 146.222 119.257 146.342 118.617 146.342C118.057 146.342 117.585 146.222 117.201 145.982C116.817 145.726 116.529 145.358 116.337 144.878C116.145 144.398 116.049 143.822 116.049 143.15C116.065 142.414 116.161 141.806 116.337 141.326C116.529 140.83 116.809 140.462 117.177 140.222C117.545 139.982 118.001 139.862 118.545 139.862C118.977 139.862 119.353 139.958 119.673 140.15C119.993 140.342 120.241 140.614 120.417 140.966C120.593 141.318 120.681 141.734 120.681 142.214C120.681 142.326 120.649 142.47 120.585 142.646C120.537 142.806 120.473 142.942 120.393 143.054L121.257 141.95H114.441V143.966H124.521C124.553 143.854 124.569 143.718 124.569 143.558C124.569 143.382 124.569 143.206 124.569 143.03C124.569 141.846 124.337 140.838 123.873 140.006C123.409 139.174 122.737 138.542 121.857 138.11C120.977 137.662 119.897 137.438 118.617 137.438C117.337 137.438 116.225 137.67 115.281 138.134C114.353 138.598 113.641 139.262 113.145 140.126C112.649 140.99 112.401 142.014 112.401 143.198C112.401 144.366 112.657 145.382 113.169 146.246C113.681 147.11 114.401 147.782 115.329 148.262C116.273 148.726 117.385 148.958 118.665 148.958ZM127.407 144.71L125.895 147.11C126.391 147.494 126.927 147.846 127.503 148.166C128.079 148.47 128.703 148.71 129.375 148.886C130.063 149.078 130.807 149.174 131.607 149.174C132.919 149.174 133.935 148.878 134.655 148.286C135.391 147.678 135.759 146.782 135.759 145.598C135.759 144.91 135.607 144.358 135.303 143.942C135.015 143.526 134.623 143.182 134.127 142.91C133.647 142.638 133.119 142.398 132.543 142.19C131.999 141.982 131.535 141.814 131.151 141.686C130.783 141.542 130.495 141.39 130.287 141.23C130.095 141.07 129.999 140.87 129.999 140.63C129.999 140.422 130.079 140.254 130.239 140.126C130.415 139.998 130.671 139.934 131.007 139.934C131.503 139.934 132.047 140.078 132.639 140.366C133.231 140.638 133.759 140.99 134.223 141.422L135.519 139.07C135.087 138.75 134.623 138.47 134.127 138.23C133.647 137.99 133.127 137.798 132.567 137.654C132.023 137.51 131.431 137.438 130.791 137.438C129.991 137.438 129.279 137.558 128.655 137.798C128.047 138.038 127.559 138.39 127.191 138.854C126.839 139.318 126.663 139.886 126.663 140.558C126.663 141.262 126.815 141.838 127.119 142.286C127.423 142.734 127.807 143.094 128.271 143.366C128.751 143.622 129.255 143.846 129.783 144.038C130.375 144.214 130.839 144.382 131.175 144.542C131.527 144.702 131.775 144.87 131.919 145.046C132.063 145.206 132.135 145.406 132.135 145.646C132.135 145.902 132.047 146.11 131.871 146.27C131.695 146.43 131.423 146.51 131.055 146.51C130.799 146.51 130.495 146.462 130.143 146.366C129.791 146.254 129.383 146.07 128.919 145.814C128.471 145.542 127.967 145.174 127.407 144.71ZM137.536 133.526C137.536 134.102 137.744 134.574 138.16 134.942C138.576 135.31 139.072 135.494 139.648 135.494C140.24 135.494 140.736 135.31 141.136 134.942C141.552 134.574 141.76 134.102 141.76 133.526C141.76 132.95 141.552 132.486 141.136 132.134C140.736 131.766 140.24 131.582 139.648 131.582C139.072 131.582 138.576 131.766 138.16 132.134C137.744 132.486 137.536 132.95 137.536 133.526ZM137.896 137.678V148.718H141.4V137.678H137.896ZM143.977 149.51C144.057 150.486 144.321 151.342 144.769 152.078C145.217 152.83 145.881 153.414 146.761 153.83C147.657 154.246 148.785 154.454 150.145 154.454C151.281 154.454 152.305 154.246 153.217 153.83C154.129 153.43 154.857 152.79 155.401 151.91C155.961 151.03 156.241 149.886 156.241 148.478V137.678H152.761V148.478C152.761 149.15 152.633 149.71 152.377 150.158C152.137 150.622 151.809 150.966 151.393 151.19C150.977 151.43 150.513 151.55 150.001 151.55C149.537 151.55 149.121 151.47 148.753 151.31C148.385 151.166 148.089 150.942 147.865 150.638C147.657 150.334 147.529 149.958 147.481 149.51H143.977ZM143.737 143.054C143.737 144.286 143.985 145.318 144.481 146.15C144.993 146.982 145.649 147.614 146.449 148.046C147.249 148.462 148.097 148.67 148.993 148.67C149.921 148.67 150.737 148.454 151.441 148.022C152.161 147.574 152.729 146.934 153.145 146.102C153.561 145.254 153.769 144.238 153.769 143.054C153.769 141.854 153.561 140.838 153.145 140.006C152.729 139.174 152.161 138.542 151.441 138.11C150.737 137.662 149.921 137.438 148.993 137.438C148.097 137.438 147.249 137.646 146.449 138.062C145.649 138.478 144.993 139.102 144.481 139.934C143.985 140.766 143.737 141.806 143.737 143.054ZM147.553 143.054C147.553 142.478 147.673 141.99 147.913 141.59C148.153 141.19 148.473 140.886 148.873 140.678C149.273 140.47 149.713 140.366 150.193 140.366C150.497 140.366 150.801 140.422 151.105 140.534C151.409 140.646 151.681 140.814 151.921 141.038C152.177 141.262 152.377 141.542 152.521 141.878C152.681 142.214 152.761 142.606 152.761 143.054C152.761 143.646 152.633 144.142 152.377 144.542C152.121 144.942 151.793 145.246 151.393 145.454C151.009 145.646 150.609 145.742 150.193 145.742C149.713 145.742 149.273 145.638 148.873 145.43C148.473 145.222 148.153 144.918 147.913 144.518C147.673 144.102 147.553 143.614 147.553 143.054ZM166.209 141.998V148.718H169.977V141.614C169.977 140.286 169.665 139.254 169.041 138.518C168.417 137.782 167.417 137.414 166.041 137.414C165.225 137.414 164.537 137.582 163.977 137.918C163.433 138.254 163.001 138.726 162.681 139.334V137.678H159.033V148.718H162.681V141.998C162.681 141.566 162.761 141.198 162.921 140.894C163.081 140.59 163.305 140.358 163.593 140.198C163.881 140.038 164.217 139.958 164.601 139.958C165.177 139.958 165.585 140.134 165.825 140.486C166.081 140.838 166.209 141.342 166.209 141.998ZM178.454 148.958C179.862 148.958 181.054 148.686 182.03 148.142C183.022 147.598 183.806 146.782 184.382 145.694L181.142 144.902C180.87 145.382 180.502 145.742 180.038 145.982C179.59 146.222 179.046 146.342 178.406 146.342C177.846 146.342 177.374 146.222 176.99 145.982C176.606 145.726 176.318 145.358 176.126 144.878C175.934 144.398 175.838 143.822 175.838 143.15C175.854 142.414 175.95 141.806 176.126 141.326C176.318 140.83 176.598 140.462 176.966 140.222C177.334 139.982 177.79 139.862 178.334 139.862C178.766 139.862 179.142 139.958 179.462 140.15C179.782 140.342 180.03 140.614 180.206 140.966C180.382 141.318 180.47 141.734 180.47 142.214C180.47 142.326 180.438 142.47 180.374 142.646C180.326 142.806 180.262 142.942 180.182 143.054L181.046 141.95H174.23V143.966H184.31C184.342 143.854 184.358 143.718 184.358 143.558C184.358 143.382 184.358 143.206 184.358 143.03C184.358 141.846 184.126 140.838 183.662 140.006C183.198 139.174 182.526 138.542 181.646 138.11C180.766 137.662 179.686 137.438 178.406 137.438C177.126 137.438 176.014 137.67 175.07 138.134C174.142 138.598 173.43 139.262 172.934 140.126C172.438 140.99 172.19 142.014 172.19 143.198C172.19 144.366 172.446 145.382 172.958 146.246C173.47 147.11 174.19 147.782 175.118 148.262C176.062 148.726 177.174 148.958 178.454 148.958ZM190.172 137.678H186.596V148.718H190.172V137.678ZM193.364 141.422L194.924 138.326C194.732 138.038 194.452 137.814 194.084 137.654C193.716 137.494 193.332 137.414 192.932 137.414C192.324 137.414 191.74 137.614 191.18 138.014C190.62 138.414 190.164 138.958 189.812 139.646C189.476 140.334 189.308 141.118 189.308 141.998L190.172 143.27C190.172 142.742 190.244 142.294 190.388 141.926C190.532 141.558 190.74 141.278 191.012 141.086C191.284 140.894 191.596 140.798 191.948 140.798C192.268 140.798 192.532 140.854 192.74 140.966C192.964 141.078 193.172 141.23 193.364 141.422ZM195.605 137.678L201.293 149.414L204.869 142.838L208.517 149.414L214.205 137.678H210.413L208.109 143.342L204.869 136.838L201.701 143.342L199.397 137.678H195.605ZM220.712 148.958C222.12 148.958 223.312 148.686 224.288 148.142C225.28 147.598 226.064 146.782 226.64 145.694L223.4 144.902C223.128 145.382 222.76 145.742 222.296 145.982C221.848 146.222 221.304 146.342 220.664 146.342C220.104 146.342 219.632 146.222 219.248 145.982C218.864 145.726 218.576 145.358 218.384 144.878C218.192 144.398 218.096 143.822 218.096 143.15C218.112 142.414 218.208 141.806 218.384 141.326C218.576 140.83 218.856 140.462 219.224 140.222C219.592 139.982 220.048 139.862 220.592 139.862C221.024 139.862 221.4 139.958 221.72 140.15C222.04 140.342 222.288 140.614 222.464 140.966C222.64 141.318 222.728 141.734 222.728 142.214C222.728 142.326 222.696 142.47 222.632 142.646C222.584 142.806 222.52 142.942 222.44 143.054L223.304 141.95H216.488V143.966H226.568C226.6 143.854 226.616 143.718 226.616 143.558C226.616 143.382 226.616 143.206 226.616 143.03C226.616 141.846 226.384 140.838 225.92 140.006C225.456 139.174 224.784 138.542 223.904 138.11C223.024 137.662 221.944 137.438 220.664 137.438C219.384 137.438 218.272 137.67 217.328 138.134C216.4 138.598 215.688 139.262 215.192 140.126C214.696 140.99 214.448 142.014 214.448 143.198C214.448 144.366 214.704 145.382 215.216 146.246C215.728 147.11 216.448 147.782 217.376 148.262C218.32 148.726 219.432 148.958 220.712 148.958ZM232.454 129.998H228.83V148.718H232.454V129.998ZM241.478 143.198C241.478 141.95 241.222 140.902 240.71 140.054C240.214 139.206 239.566 138.558 238.766 138.11C237.982 137.662 237.134 137.438 236.222 137.438C235.31 137.438 234.494 137.67 233.773 138.134C233.054 138.598 232.486 139.262 232.07 140.126C231.654 140.974 231.446 141.998 231.446 143.198C231.446 144.382 231.654 145.406 232.07 146.27C232.486 147.134 233.054 147.798 233.773 148.262C234.494 148.726 235.31 148.958 236.222 148.958C237.134 148.958 237.982 148.734 238.766 148.286C239.566 147.838 240.214 147.19 240.71 146.342C241.222 145.478 241.478 144.43 241.478 143.198ZM237.662 143.198C237.662 143.774 237.542 144.278 237.302 144.71C237.062 145.126 236.742 145.454 236.342 145.694C235.942 145.918 235.502 146.03 235.022 146.03C234.606 146.03 234.198 145.918 233.798 145.694C233.414 145.47 233.094 145.15 232.838 144.734C232.582 144.302 232.454 143.79 232.454 143.198C232.454 142.606 232.582 142.102 232.838 141.686C233.094 141.254 233.414 140.926 233.798 140.702C234.198 140.478 234.606 140.366 235.022 140.366C235.502 140.366 235.942 140.486 236.342 140.726C236.742 140.95 237.062 141.278 237.302 141.71C237.542 142.126 237.662 142.622 237.662 143.198ZM242.663 147.086C242.663 147.694 242.879 148.214 243.311 148.646C243.743 149.078 244.279 149.294 244.919 149.294C245.591 149.294 246.135 149.078 246.551 148.646C246.967 148.214 247.175 147.694 247.175 147.086C247.175 146.478 246.967 145.958 246.551 145.526C246.135 145.094 245.591 144.878 244.919 144.878C244.279 144.878 243.743 145.094 243.311 145.526C242.879 145.958 242.663 146.478 242.663 147.086ZM257.381 141.998V148.718H261.149V141.614C261.149 140.286 260.837 139.254 260.213 138.518C259.589 137.782 258.589 137.414 257.213 137.414C256.397 137.414 255.709 137.582 255.149 137.918C254.605 138.254 254.173 138.726 253.853 139.334V137.678H250.205V148.718H253.853V141.998C253.853 141.566 253.933 141.198 254.093 140.894C254.253 140.59 254.477 140.358 254.765 140.198C255.053 140.038 255.389 139.958 255.773 139.958C256.349 139.958 256.757 140.134 256.997 140.486C257.253 140.838 257.381 141.342 257.381 141.998ZM264.01 129.998V148.718H267.658V129.998H264.01Z" fill="#4D535F"></path><defs><clipPath id="clip0_602_134"><rect width="150" height="110.718" fill="white" transform="translate(60)"></rect></clipPath></defs></svg>